<?xml version="1.0" encoding="utf-8"?>
<!-- Generator: Adobe Illustrator 26.2.1, SVG Export Plug-In . SVG Version: 6.00 Build 0)  -->
<svg version="1.1" id="Capa_1" xmlns="http://www.w3.org/2000/svg" xmlns:xlink="http://www.w3.org/1999/xlink" x="0px" y="0px"
	 viewBox="0 0 255.1 255.1" style="enable-background:new 0 0 255.1 255.1;" xml:space="preserve">
<style type="text/css">
	.st0{fill:#C03028;}
	.st1{fill:#FFFFFF;}
</style>
<circle class="st0" cx="127.6" cy="127.6" r="121.6"/>
<g>
	<path class="st1" d="M115.5,42.3c1.5,1.3,2.6,3.4,1.9,5.9l-7.1,26.8l-16.9-2.5l7.3-27.3c0.7-2.5,2.8-4.6,5.9-5.2
		C109.7,39.3,113.4,40.5,115.5,42.3L115.5,42.3z"/>
	<path class="st1" d="M138.4,59.8L131.7,80c-0.7,2.2-1.9,2.5-2.8,0.9c-1.2-2-3.2-3.7-6.2-4.2l-7.3-1.1l5.8-21.5
		C123.6,45,141.8,49.3,138.4,59.8L138.4,59.8z"/>
	<path class="st1" d="M151.1,57.3c2.4-0.1,4.8,1,6.5,2.6c2.3,2.1,3.3,5,2.5,7.4c0,0-6.7,20.8-10,31.1c-0.8,2.5-2.8,4.5-5.9,5.2
		c-3.3,0.7-7.1,0.1-9.2-1.8c-2.3-2.1-3.2-4.9-2.5-7.4l10.3-31.6C144.1,58.8,147.5,57.4,151.1,57.3L151.1,57.3z"/>
	<path class="st1" d="M170.7,68.5c2.4,0,4.8,1,6.5,2.6c2.3,2.1,3.1,5,2.6,7.1l-7.3,26.3c-0.7,2.5-2.8,4.5-5.9,5.2
		c-3.1,0.7-6.6-0.3-8.9-2.4c-2.3-2.1-3.2-4.9-2.5-7.4l8.8-27.3C165,69.2,167.7,68.5,170.7,68.5L170.7,68.5z"/>
	<path class="st1" d="M85.4,76.5l35.9,5.4c2.5,0.7,4.5,2.8,5.2,5.9c0.6,3.1-0.3,6.5-2.4,8.9c-2,2.2-4.6,2.4-8.1,2.4l-21.9-0.2
		c-3.3,0-3.3,3.6,0,3.8l30.8,2.3c6.6,0.5,14,10.2,7.5,24.7c-1.5,3.2,2.6,4.1,3.8,1.2c3.2-7.1,4.6-12.9,2.9-18.3
		c-0.7-2.3-1-3.6,1.8-3.5c2.7,0,5.1-0.3,7.3-1.3c2.6-1.3,2.6-1.4,3.8,0.8c0.6,1,1.4,1.8,2.2,2.5c3.6,3.3,8.6,4.4,13.5,3.6
		c1.8-0.3,2.2-0.1,1.7,2.3l-3.4,18c-1.3,6.9-5.9,14.7-11.9,15.6l-4.2,0.6c-3.6,0.5-3.4,2.7,0.2,3.4l4,0.8c5.1,1,4.5,2.4,4.9,7
		l3.8,46.1c0.4,5-0.9,6.7-5.5,6.7H100c-3.1,0-5.1-1.7-4.5-6.2l6.7-50.7c0.5-3.4-0.5-7.1-3.1-10.7l-21.9-30.2c-1.8-2.2-2.3-4.2-1.9-9
		l2.1-26.6C77.7,77.4,82.1,76,85.4,76.5L85.4,76.5z"/>
	<path class="st1" d="M127.8,100.2C127.9,100.3,127.9,100.3,127.8,100.2C127.9,100.3,127.8,100.3,127.8,100.2
		C127.8,100.3,127.8,100.3,127.8,100.2z"/>
</g>
</svg>
