<?xml version="1.0" encoding="utf-8"?>
<!-- Generator: Adobe Illustrator 26.2.1, SVG Export Plug-In . SVG Version: 6.00 Build 0)  -->
<svg version="1.1" id="Capa_1" xmlns="http://www.w3.org/2000/svg" xmlns:xlink="http://www.w3.org/1999/xlink" x="0px" y="0px"
	 viewBox="0 0 255.1 255.1" style="enable-background:new 0 0 255.1 255.1;" xml:space="preserve">
<style type="text/css">
	.st0{fill:#2F0058;}
	.st1{fill-rule:evenodd;clip-rule:evenodd;fill:#FFFFFF;}
</style>
<circle class="st0" cx="127.6" cy="127.6" r="121.6"/>
<g>
	<path class="st1" d="M127.6,193.3c36.3,0,65.8-29.4,65.8-65.8s-29.4-65.8-65.8-65.8s-65.8,29.4-65.8,65.8S91.2,193.3,127.6,193.3z
		 M127.6,48.6c43.6,0,78.9,35.3,78.9,78.9s-35.3,78.9-78.9,78.9s-78.9-35.3-78.9-78.9S84,48.6,127.6,48.6z M85.8,85.8l4.6,4.7
		l-19,19h0c-1.3,3.9-2.1,7.8-2.6,11.9l26.3-26.3l9.3,9.3l-34.8,34.8c0.5,2.5,1.2,4.9,2,7.3l37.4-37.4l9.3,9.3l-40.8,40.8
		c1.2,1.9,2.4,3.7,3.8,5.4L123,123l9.3,9.3l-41.6,41.6c1.8,1.4,3.6,2.7,5.5,3.8l40.8-40.8l9.3,9.3l-37.4,37.4c2.4,0.8,4.8,1.5,7.3,2
		l34.8-34.8l9.3,9.3l-26.3,26.3c4-0.4,8-1.3,11.9-2.6l19.1-19.1l4.6,4.6c23.1-23.1,23.1-60.6,0-83.7
		C146.3,62.7,108.9,62.7,85.8,85.8L85.8,85.8z"/>
</g>
</svg>
