<?xml version="1.0" encoding="utf-8"?>
<!-- Generator: Adobe Illustrator 26.2.1, SVG Export Plug-In . SVG Version: 6.00 Build 0)  -->
<svg version="1.1" id="Capa_1" xmlns="http://www.w3.org/2000/svg" xmlns:xlink="http://www.w3.org/1999/xlink" x="0px" y="0px"
	 viewBox="0 0 255.1 255.1" style="enable-background:new 0 0 255.1 255.1;" xml:space="preserve">
<style type="text/css">
	.st0{fill:#68A090;}
	.st1{fill:#FFFFFF;}
</style>
<circle class="st0" cx="127.6" cy="127.6" r="121.6"/>
<g>
	<path class="st1" d="M200.8,121.9c3.8,0,7,3.1,7,7c0,3.8-3.1,7-7,7h-5.2c-0.7,6.7-2.3,13.1-4.8,19.2c-6.9,16.7-20,29.9-36.6,36.9
		c-3.5,1.5-7.6-0.2-9.1-3.7s0.2-7.6,3.7-9.1c13.1-5.5,23.7-16.2,29.1-29.3c1.8-4.3,3.1-9,3.7-13.9h-6.2c-3.8,0-7-3.1-7-7
		c0-3.8,3.1-7,7-7h6.2c-1.6-12.2-7.2-23.2-15.5-31.5c-8.3-8.3-19.3-13.9-31.5-15.5v6.2c0,3.8-3.1,7-7,7c-3.8,0-7-3.1-7-7v-6.2
		c-12.2,1.6-23.2,7.2-31.5,15.5c-8.3,8.3-13.9,19.3-15.5,31.5h6.2c3.8,0,7,3.1,7,7c0,3.8-3.1,7-7,7h-6.2c0.6,4.9,1.9,9.5,3.7,13.9
		c5.4,13.1,16.1,23.8,29.1,29.3c3.5,1.5,5.2,5.6,3.7,9.1s-5.6,5.2-9.1,3.7c-16.6-7-29.7-20.2-36.6-36.9c-2.5-6-4.2-12.4-4.8-19.1
		h-5.2c-3.8,0-7-3.1-7-7c0-3.8,3.1-7,7-7h5.2c1.6-16.1,8.8-30.5,19.7-41.4c10.8-10.8,25.3-18,41.4-19.7v-5.2c0-3.8,3.1-7,7-7
		c3.8,0,7,3.1,7,7v5.2c16.1,1.6,30.5,8.8,41.4,19.7c10.8,10.8,18,25.3,19.7,41.4L200.8,121.9L200.8,121.9z M114.5,127.8
		c0,3.8-3.1,7-7,7c-3.8,0-7-3.1-7-7c0-14.9,12.1-26.9,26.9-26.9c14.8,0,26.9,12.1,26.9,26.9c0,12.2-8.2,22.9-20,26v13.3
		c0,3.8-3.1,7-7,7c-3.8,0-7-3.1-7-7v-19.4c0-3.8,3.1-7,7-7c7.2,0,13-5.8,13-13c0-7.2-5.8-13-13-13
		C120.4,114.8,114.5,120.6,114.5,127.8L114.5,127.8z M134.5,191.5c0,3.8-3.1,7-7,7s-7-3.1-7-7c0-3.8,3.1-7,7-7
		S134.5,187.7,134.5,191.5z"/>
</g>
</svg>
